<?xml version="1.0" standalone="no"?>
<!DOCTYPE svg PUBLIC "-//W3C//DTD SVG 20010904//EN"
 "http://www.w3.org/TR/2001/REC-SVG-20010904/DTD/svg10.dtd">
<svg version="1.0" xmlns="http://www.w3.org/2000/svg"
 width="128.000000pt" height="128.000000pt" viewBox="0 0 128.000000 128.000000"
 preserveAspectRatio="xMidYMid meet">
<metadata>
Created by potrace 1.12, written by Peter Selinger 2001-2015
</metadata>
<g transform="translate(0.000000,128.000000) scale(0.100000,-0.100000)"
fill="#000000" stroke="none">
<path d="M660 1000 c-110 -14 -207 -58 -281 -127 -47 -44 -62 -72 -74 -144
l-7 -36 51 -5 c28 -3 54 -8 57 -11 8 -8 -16 -136 -26 -142 -4 -3 -29 5 -55 16
-49 22 -104 20 -123 -4 -5 -6 -11 -70 -13 -142 l-4 -130 37 -9 c28 -7 48 -5
83 9 53 20 77 52 101 133 13 43 19 52 39 52 18 0 25 -8 34 -44 15 -59 53 -89
152 -121 44 -14 85 -25 91 -25 6 0 36 12 67 26 l55 27 68 -18 c37 -9 74 -15
82 -12 8 3 17 21 21 39 4 18 25 89 47 158 52 162 55 229 14 317 -46 101 -132
168 -244 192 -57 12 -87 12 -172 1z"/>
</g>
</svg>
