<?xml version="1.0" standalone="no"?>
<!DOCTYPE svg PUBLIC "-//W3C//DTD SVG 20010904//EN"
 "http://www.w3.org/TR/2001/REC-SVG-20010904/DTD/svg10.dtd">
<svg version="1.0" xmlns="http://www.w3.org/2000/svg"
 width="64.000000pt" height="64.000000pt" viewBox="0 0 64.000000 64.000000"
 preserveAspectRatio="xMidYMid meet">
<metadata>
Created by potrace 1.12, written by Peter Selinger 2001-2015
</metadata>
<g transform="translate(0.000000,64.000000) scale(0.100000,-0.100000)"
fill="#ffffff" stroke="none">
<path d="M322 467 c-94 -95 -172 -177 -172 -182 0 -13 122 -135 135 -135 6 0
88 78 183 173 124 124 172 179 172 196 0 46 -78 121 -126 121 -11 0 -90 -71
-192 -173z"/>
<path d="M140 203 c0 -10 -32 -50 -71 -89 -64 -64 -70 -74 -60 -93 19 -35 43
-25 116 49 39 40 78 70 89 70 17 0 14 7 -19 40 -43 44 -55 49 -55 23z"/>
</g>
</svg>
