<?xml version="1.0" standalone="no"?>
<!DOCTYPE svg PUBLIC "-//W3C//DTD SVG 20010904//EN"
 "http://www.w3.org/TR/2001/REC-SVG-20010904/DTD/svg10.dtd">
<svg version="1.0" xmlns="http://www.w3.org/2000/svg"
 width="512.000000pt" height="512.000000pt" viewBox="0 0 512.000000 512.000000"
 preserveAspectRatio="xMidYMid meet">
<metadata>
Created by potrace 1.12, written by Peter Selinger 2001-2015
</metadata>
<g transform="translate(0.000000,512.000000) scale(0.100000,-0.100000)"
fill="#ffffff" stroke="none">
<path d="M2335 5109 c-587 -54 -1123 -298 -1544 -704 -429 -414 -685 -919
-768 -1516 -21 -151 -23 -479 -4 -624 61 -474 226 -884 504 -1254 91 -120 302
-339 421 -435 204 -166 494 -331 740 -421 193 -71 438 -124 666 -145 559 -50
1153 103 1627 420 290 194 562 472 748 766 149 235 271 536 334 820 75 336 75
752 0 1088 -87 393 -258 749 -512 1066 -160 200 -406 419 -625 557 -460 291
-1047 432 -1587 382z m165 -628 l0 -300 -42 -5 c-173 -20 -231 -30 -316 -52
-612 -159 -1085 -675 -1192 -1301 -11 -63 -20 -135 -20 -159 l0 -44 -295 0
-295 0 0 35 c0 20 5 79 11 133 102 948 779 1716 1704 1935 126 30 292 54 383
56 l62 1 0 -299z m410 274 c517 -84 989 -347 1328 -740 315 -365 506 -825 538
-1295 l7 -100 -296 0 -297 0 -4 23 c-2 12 -9 65 -15 117 -55 492 -373 963
-817 1210 -208 115 -423 180 -686 205 l-68 7 0 300 0 301 108 -7 c59 -3 150
-13 202 -21z m-410 -1025 l0 -230 -25 0 c-51 0 -181 -32 -261 -65 -310 -124
-541 -426 -579 -752 l-7 -63 -244 0 -244 0 0 23 c0 12 7 65 15 117 87 541 459
974 979 1139 108 35 232 58 314 60 l52 1 0 -230z m342 205 c173 -35 357 -113
513 -217 115 -76 297 -260 378 -384 134 -203 212 -419 233 -643 l7 -71 -231 0
-231 0 -6 48 c-29 209 -112 391 -245 535 -145 158 -375 275 -580 295 l-75 7
-3 229 -2 229 82 -6 c46 -3 118 -13 160 -22z m-1910 -1520 c33 -491 320 -971
740 -1241 215 -138 488 -232 733 -252 l90 -7 3 -287 2 -288 -49 0 c-79 0 -276
28 -396 57 -657 155 -1200 590 -1495 1198 -124 255 -200 540 -216 818 l-7 107
294 -2 294 -3 7 -100z m702 42 c14 -137 69 -287 151 -412 147 -224 394 -381
653 -413 l57 -7 3 -249 2 -249 -77 7 c-550 49 -1035 436 -1212 966 -35 103
-71 293 -71 371 l0 49 244 0 243 0 7 -63z m2336 5 c0 -137 -55 -357 -131 -521
-129 -278 -385 -537 -666 -672 -154 -74 -335 -124 -495 -136 l-78 -6 0 246 0
246 58 6 c89 10 207 41 291 78 301 130 516 424 556 760 l7 57 229 0 229 0 0
-58z m810 13 c0 -25 -5 -89 -11 -143 -104 -957 -793 -1732 -1730 -1942 -109
-25 -303 -50 -380 -50 l-59 0 0 285 0 285 23 4 c12 3 58 8 102 11 247 19 533
124 758 277 113 78 289 245 371 355 197 263 302 544 331 886 l7 77 294 0 294
0 0 -45z"/>
</g>
</svg>
