<?xml version="1.0" standalone="no"?>
<!DOCTYPE svg PUBLIC "-//W3C//DTD SVG 20010904//EN"
 "http://www.w3.org/TR/2001/REC-SVG-20010904/DTD/svg10.dtd">
<svg version="1.0" xmlns="http://www.w3.org/2000/svg"
 width="128.000000pt" height="128.000000pt" viewBox="0 0 128.000000 128.000000"
 preserveAspectRatio="xMidYMid meet">
<metadata>
Created by potrace 1.12, written by Peter Selinger 2001-2015
</metadata>
<g transform="translate(0.000000,128.000000) scale(0.100000,-0.100000)"
fill="#ffffff" stroke="none">
<path d="M637 1006 c-189 -53 -272 -272 -164 -433 158 -237 531 -126 531 157
0 190 -183 328 -367 276z"/>
<path d="M365 450 l-90 -90 33 -32 32 -33 90 90 90 91 -33 32 -33 32 -89 -90z"/>
<path d="M740 380 c-29 -29 -26 -74 6 -99 35 -27 59 -26 89 4 46 45 19 115
-45 115 -17 0 -39 -9 -50 -20z"/>
</g>
</svg>
